<svg width="109" height="118" viewBox="0 0 109 118" fill="none" xmlns="http://www.w3.org/2000/svg">
<path d="M85.1571 117.525C85.1571 111.185 82.6451 105.106 78.1737 100.623C73.7023 96.1408 67.6378 93.6226 61.3143 93.6226C67.6378 93.6226 73.7023 91.1043 78.1737 86.6218C82.6451 82.1393 85.1571 76.0598 85.1571 69.7205C85.1571 76.0598 87.6691 82.1393 92.1405 86.6218C96.6119 91.1043 102.676 93.6226 109 93.6226C102.676 93.6226 96.6119 96.1408 92.1405 100.623C87.6691 105.106 85.1571 111.185 85.1571 117.525ZM19.5421 69.7205C16.9572 69.7206 14.4776 68.6937 12.6463 66.8649C10.8149 65.0361 9.78101 62.5544 9.77103 59.9631C9.77103 62.5609 8.7416 65.0524 6.90917 66.8894C5.07674 68.7263 2.59144 69.7583 0 69.7583C1.28395 69.7583 2.55531 70.012 3.7414 70.5049C4.9275 70.9977 6.00506 71.7201 6.91251 72.6307C7.81996 73.5413 8.53951 74.6222 9.02999 75.8117C9.52048 77.0012 9.77227 78.276 9.77103 79.5631C9.76482 78.2728 10.013 76.994 10.5013 75.8001C10.9895 74.6062 11.7083 73.5208 12.6162 72.6062C13.5241 71.6916 14.6034 70.9659 15.792 70.4707C16.9805 69.9754 18.255 69.7205 19.5421 69.7205ZM82.4692 5.48385C81.0183 5.48385 79.627 4.90608 78.6011 3.87766C77.5752 2.84924 76.9989 1.45441 76.9989 0C76.9964 1.45528 76.4179 2.85009 75.3906 3.87824C74.3632 4.90639 72.9709 5.48386 71.5192 5.48385C72.9725 5.48385 74.3663 6.06261 75.3939 7.0928C76.4215 8.123 76.9989 9.52024 76.9989 10.9772C76.9989 9.52188 77.5749 8.12606 78.6005 7.09613C79.6261 6.06621 81.0175 5.48636 82.4692 5.48385Z" fill="#F6CECE"/>
</svg>
